<svg width="200" height="22" viewBox="0 0 200 22" fill="none" xmlns="http://www.w3.org/2000/svg">
<g clip-path="url(#clip0_1399_20018)">
<path d="M26.1602 4.32927V0.453171H30.7553V4.33106H26.1602V4.32927ZM26.2746 21.4184V6.02495H30.6408V21.4184H26.2746Z" fill="white"/>
<path d="M43.7079 21.4184V19.2273C43.1713 19.9499 42.5256 20.5438 41.7689 21.0088C41.0123 21.4739 40.0607 21.7064 38.9106 21.7064C38.0109 21.7064 37.1398 21.5347 36.2973 21.1895C35.4549 20.8443 34.7072 20.3327 34.0579 19.653C33.4068 18.9733 32.8845 18.1398 32.4928 17.1542C32.0993 16.1686 31.9043 15.0346 31.9043 13.7503V13.6931C31.9043 12.4106 32.1011 11.2766 32.4928 10.2892C32.8845 9.30362 33.4014 8.47009 34.0436 7.79039C34.6839 7.11069 35.4262 6.59912 36.2687 6.2539C37.1112 5.90868 37.9912 5.73697 38.9106 5.73697C40.0786 5.73697 41.0409 5.96413 41.7976 6.42025C42.5542 6.87637 43.191 7.40761 43.7079 8.01576V0.453171H48.0723V21.4184H43.7079ZM43.7651 13.6913C43.7651 13.0545 43.665 12.4714 43.4628 11.9419C43.2625 11.4125 42.9942 10.96 42.6579 10.5825C42.3234 10.2069 41.9299 9.91715 41.481 9.71502C41.0302 9.5129 40.5473 9.41094 40.0303 9.41094C39.5134 9.41094 39.0305 9.5129 38.5797 9.71502C38.129 9.91715 37.7319 10.2069 37.3884 10.5825C37.0432 10.9582 36.7713 11.4071 36.5692 11.9276C36.3689 12.4481 36.2669 13.0366 36.2669 13.6913V13.7485C36.2669 14.3853 36.3671 14.9684 36.5692 15.4979C36.7695 16.0273 37.0432 16.4799 37.3884 16.8573C37.7337 17.2329 38.1307 17.5227 38.5797 17.7248C39.0287 17.9269 39.5134 18.0289 40.0303 18.0289C40.5473 18.0289 41.0302 17.9287 41.481 17.7248C41.9299 17.5227 42.3234 17.2329 42.6579 16.8573C42.9924 16.4816 43.2607 16.0291 43.4628 15.4979C43.665 14.9666 43.7651 14.3853 43.7651 13.7485V13.6913Z" fill="white"/>
<path d="M64.1677 14.6967C64.157 14.8506 64.1427 15.033 64.1248 15.2423H53.4123C53.6234 16.2386 54.058 16.9899 54.7198 17.4961C55.3799 18.004 56.1991 18.2562 57.1757 18.2562C57.9037 18.2562 58.5548 18.131 59.129 17.8824C59.7031 17.6338 60.297 17.2313 60.9105 16.6768L63.4093 18.8877C62.6813 19.7874 61.8013 20.4921 60.7674 20.9983C59.7335 21.5045 58.5172 21.7585 57.1203 21.7585C55.9719 21.7585 54.9041 21.5671 53.9185 21.1843C52.9329 20.8016 52.0797 20.256 51.3624 19.5477C50.6452 18.8394 50.0835 18.0023 49.6829 17.0346C49.2804 16.0687 49.0801 14.9919 49.0801 13.8042V13.747C49.0801 12.6559 49.2661 11.622 49.6399 10.6454C50.0138 9.66873 50.5343 8.81732 51.205 8.08932C51.8758 7.36132 52.6736 6.78715 53.6037 6.36681C54.532 5.94646 55.5605 5.7354 56.691 5.7354C57.9735 5.7354 59.0842 5.96435 60.0215 6.42404C60.9588 6.88374 61.7405 7.50084 62.3629 8.27713C62.9854 9.05163 63.4451 9.9424 63.742 10.9476C64.0389 11.9529 64.1874 13.0011 64.1874 14.0922V14.1494C64.182 14.3623 64.1784 14.5447 64.1677 14.6967ZM58.8982 10.1463C58.3419 9.54352 57.605 9.24124 56.6874 9.24124C55.7698 9.24124 55.0257 9.53816 54.4623 10.132C53.897 10.7259 53.5286 11.52 53.3568 12.5163H59.9339C59.7979 11.5379 59.4545 10.7491 58.8982 10.1463Z" fill="white"/>
<path d="M74.2917 21.4186V19.7533C73.755 20.3472 73.1147 20.8212 72.367 21.1753C71.6211 21.5295 70.7107 21.7066 69.6393 21.7066C68.9113 21.7066 68.2262 21.6064 67.5858 21.4043C66.9437 21.204 66.3838 20.9017 65.9063 20.4992C65.4269 20.0968 65.0495 19.6049 64.7722 19.02C64.495 18.4369 64.3555 17.7607 64.3555 16.9952V16.9379C64.3555 16.0955 64.5093 15.3675 64.8152 14.7557C65.121 14.144 65.5467 13.636 66.0923 13.2335C66.6378 12.8311 67.2889 12.5306 68.0455 12.3285C68.8022 12.1281 69.6393 12.0262 70.5587 12.0262C71.3439 12.0262 72.0272 12.0834 72.6121 12.1979C73.1952 12.3124 73.7658 12.4662 74.3203 12.6576V12.4C74.3203 11.4806 74.043 10.783 73.4867 10.3037C72.9305 9.82608 72.1077 9.5864 71.0166 9.5864C70.1741 9.5864 69.4318 9.65795 68.7914 9.80104C68.1493 9.94414 67.4749 10.1498 66.7666 10.4181L65.6755 7.0876C66.518 6.72449 67.398 6.42757 68.3174 6.19683C69.2368 5.96608 70.3458 5.85161 71.648 5.85161C74.0412 5.85161 75.7834 6.43651 76.8745 7.60274C77.9656 8.77076 78.5112 10.3985 78.5112 12.4841V21.415H74.2917V21.4186ZM74.3775 15.2136C73.9947 15.0419 73.569 14.9024 73.1004 14.7969C72.6317 14.6913 72.1291 14.6395 71.5925 14.6395C70.6535 14.6395 69.9165 14.8219 69.3817 15.185C68.8451 15.5481 68.5768 16.0758 68.5768 16.7644V16.8217C68.5768 17.4155 68.7968 17.8752 69.2368 18.2007C69.6768 18.5263 70.251 18.6891 70.9593 18.6891C71.9932 18.6891 72.8214 18.4404 73.4438 17.9432C74.0663 17.4459 74.3775 16.7948 74.3775 15.9899V15.2136Z" fill="white"/>
<path d="M93.7049 21.4326C93.1486 21.5954 92.5082 21.6777 91.7802 21.6777C91.1095 21.6777 90.5031 21.6061 89.9558 21.463C89.4084 21.3199 88.9416 21.0659 88.5481 20.7028C88.1546 20.3397 87.8487 19.8657 87.6287 19.2808C87.4087 18.6977 87.2978 17.9554 87.2978 17.0557V9.75782H85.459V6.02482H87.2978V2.08969H91.664V6.02482H95.2825V9.75782H91.664V16.3348C91.664 17.3311 92.1326 17.8284 93.0717 17.8284C93.8372 17.8284 94.5545 17.646 95.2253 17.2829V20.7869C94.7674 21.0534 94.2612 21.2698 93.7049 21.4326Z" fill="white"/>
<path d="M106.082 21.4184V12.8524C106.082 11.8203 105.853 11.0422 105.393 10.5181C104.933 9.99406 104.282 9.72933 103.44 9.72933C102.597 9.72933 101.932 9.99227 101.444 10.5181C100.955 11.044 100.712 11.8221 100.712 12.8524V21.4184H96.3477V0.453171H100.712V8.22504C100.961 7.89771 101.234 7.58469 101.531 7.28419C101.828 6.98548 102.157 6.72075 102.522 6.48822C102.885 6.25748 103.288 6.07324 103.728 5.93909C104.168 5.80494 104.665 5.73697 105.221 5.73697C106.887 5.73697 108.174 6.24496 109.085 7.25915C109.994 8.27334 110.45 9.6721 110.45 11.4518V21.4167H106.082V21.4184Z" fill="white"/>
<path d="M126.431 14.6967C126.422 14.8506 126.406 15.033 126.388 15.2423H115.676C115.887 16.2386 116.322 16.9899 116.983 17.4961C117.643 18.004 118.463 18.2562 119.439 18.2562C120.167 18.2562 120.818 18.131 121.392 17.8824C121.967 17.6338 122.56 17.2313 123.172 16.6768L125.671 18.8877C124.943 19.7874 124.063 20.4921 123.029 20.9983C121.995 21.5045 120.779 21.7585 119.382 21.7585C118.234 21.7585 117.166 21.5671 116.18 21.1843C115.195 20.8016 114.341 20.256 113.624 19.5477C112.907 18.8394 112.347 18.0023 111.945 17.0346C111.542 16.0687 111.342 14.9919 111.342 13.8042V13.747C111.342 12.6559 111.528 11.622 111.902 10.6454C112.275 9.66873 112.796 8.81732 113.467 8.08932C114.138 7.36132 114.935 6.78715 115.865 6.36681C116.794 5.94646 117.822 5.7354 118.953 5.7354C120.235 5.7354 121.346 5.96435 122.283 6.42404C123.221 6.88374 124.002 7.50084 124.623 8.27713C125.245 9.05163 125.705 9.9424 126.002 10.9476C126.299 11.9529 126.447 13.0011 126.447 14.0922V14.1494C126.446 14.3623 126.44 14.5447 126.431 14.6967ZM121.16 10.1463C120.604 9.54352 119.868 9.24124 118.949 9.24124C118.03 9.24124 117.287 9.53816 116.724 10.132C116.159 10.7259 115.79 11.52 115.619 12.5163H122.196C122.061 11.5379 121.716 10.7491 121.16 10.1463Z" fill="white"/>
<path d="M142.814 16.8665C142.392 17.8342 141.809 18.6803 141.063 19.4082C140.317 20.1362 139.435 20.7104 138.421 21.1308C137.407 21.5511 136.296 21.7622 135.091 21.7622C133.903 21.7622 132.803 21.5565 131.789 21.1451C130.775 20.7337 129.898 20.1684 129.161 19.4512C128.424 18.7339 127.845 17.8914 127.424 16.9238C127.002 15.9579 126.793 14.9186 126.793 13.8079V13.7506C126.793 12.6398 127.004 11.6024 127.424 10.6347C127.845 9.66882 128.43 8.82098 129.176 8.09298C129.921 7.36498 130.803 6.79081 131.817 6.37047C132.832 5.95013 133.942 5.73906 135.148 5.73906C136.336 5.73906 137.436 5.94476 138.45 6.35616C139.464 6.76756 140.341 7.33278 141.077 8.05005C141.814 8.76732 142.394 9.61158 142.814 10.5775C143.235 11.5452 143.446 12.5826 143.446 13.6934V13.7506C143.446 14.8614 143.235 15.8988 142.814 16.8665ZM139.137 13.7506C139.137 13.1764 139.04 12.6363 138.849 12.1283C138.657 11.6221 138.38 11.1713 138.015 10.7778C137.652 10.3861 137.221 10.0749 136.724 9.84411C136.225 9.61516 135.679 9.49889 135.087 9.49889C134.456 9.49889 133.896 9.60979 133.408 9.8298C132.919 10.0498 132.502 10.3521 132.159 10.7349C131.814 11.1177 131.551 11.563 131.368 12.071C131.186 12.579 131.095 13.1192 131.095 13.6934V13.7506C131.095 14.3248 131.19 14.8668 131.383 15.373C131.574 15.8809 131.851 16.3299 132.216 16.7234C132.579 17.1169 133.007 17.4264 133.493 17.6571C133.98 17.8879 134.533 18.0023 135.144 18.0023C135.776 18.0023 136.336 17.8914 136.824 17.6714C137.312 17.4514 137.729 17.1491 138.072 16.7663C138.418 16.3836 138.681 15.9382 138.863 15.4302C139.046 14.924 139.137 14.382 139.137 13.8079V13.7506Z" fill="white"/>
<path d="M153.496 10.3034C152.04 10.3034 150.897 10.7435 150.064 11.6253C149.23 12.5053 148.815 13.8755 148.815 15.7321V21.4184H144.449V6.02488H148.815V9.12647C149.255 8.07293 149.858 7.23046 150.626 6.59905C151.391 5.96764 152.425 5.67966 153.727 5.7369V10.3034H153.496Z" fill="white"/>
<path d="M168.648 14.6967C168.639 14.8506 168.623 15.033 168.605 15.2423H157.893C158.104 16.2386 158.538 16.9899 159.2 17.4961C159.86 18.004 160.679 18.2562 161.656 18.2562C162.384 18.2562 163.035 18.131 163.609 17.8824C164.183 17.6338 164.777 17.2313 165.389 16.6768L167.888 18.8877C167.16 19.7874 166.28 20.4921 165.246 20.9983C164.212 21.5045 162.996 21.7585 161.599 21.7585C160.45 21.7585 159.383 21.5671 158.397 21.1843C157.411 20.8016 156.558 20.256 155.841 19.5477C155.124 18.8394 154.564 18.0023 154.161 17.0346C153.759 16.0687 153.559 14.9919 153.559 13.8042V13.747C153.559 12.6559 153.745 11.622 154.118 10.6454C154.492 9.66873 155.013 8.81732 155.684 8.08932C156.354 7.36132 157.152 6.78715 158.082 6.36681C159.011 5.94646 160.039 5.7354 161.169 5.7354C162.452 5.7354 163.563 5.96435 164.5 6.42404C165.437 6.88374 166.219 7.50084 166.84 8.27713C167.462 9.05163 167.922 9.9424 168.219 10.9476C168.516 11.9529 168.664 13.0011 168.664 14.0922V14.1494C168.662 14.3623 168.657 14.5447 168.648 14.6967ZM163.377 10.1463C162.82 9.54352 162.085 9.24124 161.166 9.24124C160.247 9.24124 159.504 9.53816 158.941 10.132C158.376 10.7259 158.007 11.52 157.835 12.5163H164.412C164.276 11.5379 163.933 10.7491 163.377 10.1463Z" fill="white"/>
<path d="M188.88 21.4183V12.8523C188.88 11.8202 188.66 11.0421 188.22 10.518C187.78 9.99395 187.147 9.72922 186.324 9.72922C185.501 9.72922 184.854 9.99216 184.385 10.518C183.917 11.0439 183.682 11.822 183.682 12.8523V21.4183H179.316V12.8523C179.316 11.8202 179.096 11.0421 178.656 10.518C178.216 9.99395 177.583 9.72922 176.76 9.72922C175.937 9.72922 175.29 9.99216 174.821 10.518C174.352 11.0439 174.118 11.822 174.118 12.8523V21.4183H169.752V6.02484H174.118V8.22493C174.367 7.8976 174.64 7.58458 174.937 7.28408C175.234 6.98537 175.563 6.72064 175.928 6.48811C176.291 6.25737 176.699 6.07314 177.148 5.93898C177.597 5.80483 178.1 5.73686 178.656 5.73686C179.67 5.73686 180.547 5.94972 181.284 6.37364C182.021 6.79756 182.589 7.40571 182.992 8.19631C183.663 7.38604 184.409 6.7743 185.231 6.35933C186.054 5.94435 186.993 5.73686 188.047 5.73686C189.674 5.73686 190.948 6.21623 191.866 7.17318C192.785 8.13013 193.245 9.53783 193.245 11.3945V21.4183H188.88Z" fill="white"/>
<path d="M9.90578 15.6282C9.90578 16.4099 9.90399 17.1933 9.90578 17.975C9.90578 18.2236 9.86464 18.4597 9.69293 18.6493C9.60707 18.7423 9.50869 18.8318 9.40137 18.8962C8.10993 19.6868 6.81492 20.4684 5.52527 21.259C5.13534 21.4987 4.7615 21.4916 4.37693 21.2555C3.0855 20.4666 1.79227 19.6814 0.499045 18.8944C0.166348 18.6958 0 18.4007 0 18.0072C0.00178869 16.4278 0.00178869 14.8466 0 13.2672C0 12.8683 0.169926 12.5731 0.507989 12.3674C1.79406 11.5858 3.08192 10.8041 4.3662 10.0171C4.7615 9.77563 5.14249 9.77205 5.53779 10.0135C6.82565 10.8023 8.1153 11.584 9.40495 12.3692C9.74838 12.5785 9.91115 12.879 9.90757 13.2815C9.9022 14.0649 9.90578 14.8466 9.90578 15.6282ZM8.04196 15.6264C8.04196 15.0254 8.04196 14.4244 8.04375 13.8234C8.04375 13.7501 8.02944 13.6964 7.95968 13.6553C6.98842 13.0668 6.01716 12.4766 5.04769 11.8863C4.97793 11.8434 4.92606 11.8523 4.86167 11.8917C3.89756 12.4783 2.93346 13.065 1.96935 13.6499C1.89601 13.6947 1.8674 13.7429 1.8674 13.8306C1.87097 15.0326 1.87097 16.2346 1.8674 17.4384C1.8674 17.5296 1.8978 17.5833 1.97472 17.6298C2.93703 18.2111 3.89935 18.796 4.85809 19.3809C4.93322 19.4274 4.98866 19.4238 5.06379 19.3791C6.01716 18.796 6.97233 18.2165 7.92928 17.6387C8.01513 17.5868 8.04733 17.5314 8.04733 17.4312C8.03839 16.8284 8.04196 16.2274 8.04196 15.6264Z" fill="white"/>
<path d="M10.9747 15.6244C10.9747 14.8463 10.9765 14.0664 10.9747 13.2884C10.9747 13.0397 11.0176 12.8036 11.1893 12.6158C11.2716 12.5246 11.3682 12.4387 11.4719 12.3761C12.7723 11.5802 14.0763 10.7913 15.3784 9.99717C15.7469 9.77358 16.11 9.77537 16.4785 9.99896C17.7806 10.7913 19.0846 11.5837 20.3868 12.3761C20.7177 12.5765 20.8822 12.8716 20.8804 13.2597C20.8787 14.8427 20.8787 16.4275 20.8804 18.0105C20.8804 18.4004 20.7141 18.6938 20.385 18.8941C19.0828 19.6865 17.7789 20.4753 16.4785 21.2713C16.1028 21.5002 15.7397 21.4931 15.3713 21.2677C14.0727 20.4771 12.7723 19.6865 11.4737 18.8977C11.1356 18.692 10.9711 18.3933 10.9747 17.9944C10.98 17.2056 10.9747 16.415 10.9747 15.6244ZM19.0166 15.6315C19.0166 15.0341 19.0148 14.4367 19.0184 13.8393C19.0184 13.7445 18.9862 13.689 18.9057 13.6407C17.9488 13.063 16.9936 12.4834 16.042 11.9003C15.9562 11.8467 15.8936 11.8485 15.8077 11.9003C14.8508 12.4852 13.892 13.0666 12.9333 13.6461C12.8635 13.689 12.8385 13.7391 12.8385 13.8214C12.8403 15.0305 12.8403 16.2415 12.8385 17.4506C12.8385 17.5329 12.8671 17.5812 12.9369 17.6224C13.8992 18.2037 14.8615 18.7886 15.8202 19.3735C15.8954 19.4182 15.9508 19.4218 16.0259 19.3753C16.9865 18.7886 17.947 18.2055 18.9093 17.6242C18.9862 17.5776 19.0166 17.5258 19.0166 17.4328C19.0131 16.8335 19.0166 16.2325 19.0166 15.6315Z" fill="white"/>
<path d="M15.3942 6.0393C15.3942 6.81738 15.3871 7.59725 15.3978 8.37533C15.4032 8.79925 15.2297 9.09975 14.8684 9.31797C13.5751 10.0978 12.2855 10.8831 10.9994 11.6719C10.6202 11.9044 10.2553 11.8973 9.88149 11.6701C8.5829 10.8795 7.28252 10.0907 5.98214 9.2983C5.6566 9.09975 5.48846 8.81535 5.49025 8.42721C5.49383 6.83527 5.49383 5.24333 5.49025 3.65139C5.49025 3.25788 5.66375 2.97348 5.99108 2.77315C7.27894 1.98612 8.57038 1.20446 9.85824 0.415649C10.25 0.175964 10.6292 0.175964 11.0191 0.415649C12.307 1.20267 13.5984 1.98612 14.8898 2.76957C15.2279 2.97527 15.3996 3.26683 15.396 3.66749C15.3889 4.4581 15.3942 5.2487 15.3942 6.0393ZM7.35585 6.03572C7.35585 6.63672 7.35764 7.23772 7.35407 7.83873C7.35407 7.92816 7.3809 7.98182 7.4596 8.02833C8.41655 8.60607 9.37171 9.18561 10.3233 9.76872C10.4092 9.8206 10.47 9.82417 10.5576 9.77051C11.511 9.1874 12.4662 8.60786 13.4213 8.03012C13.4982 7.98361 13.5304 7.93353 13.5304 7.8423C13.5268 6.6403 13.5268 5.4383 13.5304 4.2363C13.5304 4.14686 13.5036 4.0932 13.4267 4.04491C12.4662 3.46537 11.5092 2.88405 10.5522 2.29914C10.4735 2.25085 10.4163 2.24906 10.3358 2.29735C9.37887 2.88226 8.42192 3.46358 7.46139 4.04312C7.37911 4.0932 7.35228 4.15044 7.35407 4.24345C7.35764 4.84088 7.35585 5.4383 7.35585 6.03572Z" fill="white"/>
</g>
<path d="M195.35 3.09326V5.48975H194.523V3.09326H193.652V2.31947H196.221V3.09326H195.35ZM197.243 5.48975H196.416V2.31947H197.468L198.212 3.8971L198.956 2.31947H200V5.48975H199.174V3.80695L198.467 5.24184H197.949L197.243 3.80695V5.48975Z" fill="white"/>
<defs>
<clipPath id="clip0_1399_20018">
<rect width="193.243" height="21.5251" fill="white" transform="translate(0 0.237442)"/>
</clipPath>
</defs>
</svg>
